<svg xmlns="http://www.w3.org/2000/svg"
 xmlns:xlink="http://www.w3.org/1999/xlink"
 width="35px" height="34px"  viewBox="0 0 35 34">
<path fill-rule="evenodd"  fill="#ebebeb"
 d="M17.000061,1.0 C25.836609,1.0 33.000122,8.163574 33.000122,16.999512 C33.000122,25.836426 25.836609,32.99951 17.000061,32.99951 C8.163452,32.99951 1.000061,25.836426 1.000061,16.999512 C1.000061,8.163574 8.163452,1.0 17.000061,1.0 ZM7.000122,11.0 C7.000122,11.0 12.792908,11.0 12.792908,11.0 C15.136658,11.0 16.722351,11.794434 16.722351,13.972656 C16.722351,15.120605 16.119324,15.922852 15.0494995,16.414062 C16.550293,16.824219 17.308472,17.921875 17.308472,19.378906 C17.308472,21.754395 15.1875,22.770996 12.964111,22.770996 C12.964111,22.770996 7.000122,22.770996 7.000122,22.770996 C7.000122,22.770996 7.000122,11.0 7.000122,11.0 ZM9.474609,15.708984 C9.474609,15.708984 12.447388,15.708984 12.447388,15.708984 C13.395142,15.708984 14.102417,15.300293 14.102417,14.317871 C14.102417,13.204102 13.205444,12.973145 12.240723,12.973145 C12.240723,12.973145 9.474609,12.973145 9.474609,12.973145 C9.474609,12.973145 9.474609,15.708984 9.474609,15.708984 ZM9.474609,20.869629 C9.474609,20.869629 12.602356,20.869629 12.602356,20.869629 C13.671265,20.869629 14.523926,20.54248 14.523926,19.329102 C14.523926,18.13379 13.809326,17.658691 12.654053,17.658691 C12.654053,17.658691 9.474609,17.658691 9.474609,17.658691 C9.474609,17.658691 9.474609,20.869629 9.474609,20.869629 ZM20.399048,18.830078 C20.467712,20.304688 21.225769,21.247559 22.587036,21.247559 C23.570374,21.247559 24.467285,20.47754 24.622375,19.952637 C24.622375,19.952637 26.776428,19.952637 26.776428,19.952637 C26.087769,21.95166 24.518982,23.0 22.501404,23.0 C19.691772,23.0 17.925293,21.16504 17.925293,18.544434 C17.925293,16.004883 19.795898,14.071777 22.501404,14.071777 C25.534668,14.071777 27.000061,16.225586 26.828125,18.830078 C26.828125,18.830078 20.399048,18.830078 20.399048,18.830078 ZM24.380981,17.306152 C24.156494,16.128418 23.621277,15.825195 22.432007,15.825195 C20.881042,15.825195 20.432983,16.652344 20.399048,17.306152 C20.399048,17.306152 24.380981,17.306152 24.380981,17.306152 ZM25.155212,13.36377 C25.155212,13.36377 20.223938,13.36377 20.223938,13.36377 C20.223938,13.36377 20.223938,11.791016 20.223938,11.791016 C20.223938,11.791016 25.155212,11.791016 25.155212,11.791016 C25.155212,11.791016 25.155212,13.36377 25.155212,13.36377 Z"/>
</svg>