<svg xmlns="http://www.w3.org/2000/svg"
 xmlns:xlink="http://www.w3.org/1999/xlink"
 width="35px" height="34px"  viewBox="0 0 35 34">
<path fill-rule="evenodd"  fill="#ebebeb"
 d="M17.000061,1.0 C25.836609,1.0 33.00003,8.163574 33.00003,16.999512 C33.00003,25.836426 25.836609,32.99951 17.000061,32.99951 C8.163513,32.99951 1.000061,25.836426 1.000061,16.999512 C1.000061,8.163574 8.163513,1.0 17.000061,1.0 ZM23.000092,6.9995117 C23.000092,6.9995117 23.000092,11.0 23.000092,11.0 C23.000092,11.0 21.000061,11.0 21.000061,11.0 C21.000061,11.0 20.00003,11.178711 20.00003,12.0 C20.00003,12.8203125 20.00003,14.0 20.00003,14.0 C20.00003,14.0 23.000092,14.0 23.000092,14.0 C23.000092,14.0 22.000061,18.0 22.000061,18.0 C22.000061,18.0 20.00003,18.0 20.00003,18.0 C20.00003,18.0 20.00003,27.0 20.00003,27.0 C20.00003,27.0 16.00003,27.0 16.00003,27.0 C16.00003,27.0 16.00003,18.0 16.00003,18.0 C16.00003,18.0 14.000092,18.0 14.000092,18.0 C14.000092,18.0 14.000092,14.0 14.000092,14.0 C14.000092,14.0 16.00003,14.0 16.00003,14.0 C16.00003,14.0 16.00003,11.0 16.00003,11.0 C16.00003,11.0 15.251984,6.9995117 19.125977,6.9995117 C23.000092,6.9995117 23.000092,6.9995117 23.000092,6.9995117 Z"/>
</svg>