<svg xmlns="http://www.w3.org/2000/svg"
 xmlns:xlink="http://www.w3.org/1999/xlink"
 width="34px" height="36px"  viewBox="0 0 34 36">
<path fill-rule="evenodd"  fill="#ebebeb"
 d="M16.999908,1.0 C25.836548,1.0 33.0,8.165527 33.0,17.004395 C33.0,25.84375 25.836548,33.009766 16.999908,33.009766 C8.163452,33.009766 1.0000305,25.84375 1.0000305,17.004395 C1.0000305,8.165527 8.163452,1.0 16.999908,1.0 ZM15.654266,8.265625 C16.440857,8.938477 18.083008,10.356445 18.083008,13.05127 C18.083008,15.673828 16.646088,16.91455 15.210236,18.083984 C14.765167,18.544434 14.251892,19.041504 14.251892,19.82129 C14.251892,20.600586 14.765167,21.025879 15.141113,21.344727 C15.141113,21.344727 16.372772,22.33789 16.372772,22.33789 C17.878906,23.648926 19.245514,24.854492 19.245514,27.300781 C19.245514,30.632324 16.132935,34.0 10.24884,34.0 C5.288788,34.0 2.8946838,31.5542 2.8946838,28.930176 C2.8946838,27.654785 3.5104675,25.84668 5.5287476,24.605469 C7.649597,23.25879 10.523499,23.082031 12.06189,22.975586 C11.583313,22.33789 11.036682,21.66455 11.036682,20.56543 C11.036682,19.962402 11.207397,19.608398 11.379242,19.182617 C11.002075,19.218262 10.626129,19.253418 10.283569,19.253418 C6.657776,19.253418 4.605011,16.453613 4.605011,13.688477 C4.605011,12.058105 5.3234863,10.25 6.794922,8.938477 C8.745178,7.272949 11.07016,6.989258 12.917694,6.989258 C12.917694,6.989258 19.96402,6.989258 19.96402,6.989258 C19.96402,6.989258 17.775146,8.265625 17.775146,8.265625 C17.775146,8.265625 15.654266,8.265625 15.654266,8.265625 C15.654266,8.265625 15.654266,8.265625 15.654266,8.265625 ZM13.225464,24.003418 C12.95224,23.967285 12.780365,23.967285 12.438965,23.967285 C12.1311035,23.967285 10.283569,24.039062 8.846649,24.535156 C8.094696,24.819336 5.904663,25.669434 5.904663,28.186523 C5.904663,30.703125 8.265503,32.510254 11.925781,32.510254 C15.210236,32.510254 16.953949,30.880371 16.953949,28.683105 C16.953949,26.874512 15.826019,25.917969 13.225464,24.003418 C13.225464,24.003418 13.225464,24.003418 13.225464,24.003418 ZM14.218506,17.269043 C15.003876,16.453613 15.072998,15.318848 15.072998,14.680664 C15.072998,12.128418 13.602631,8.158691 10.762207,8.158691 C9.873016,8.158691 8.915802,8.619629 8.368011,9.328613 C7.7857056,10.072754 7.61499,11.030273 7.61499,11.951172 C7.61499,14.325684 8.94928,18.26123 11.891174,18.26123 C12.745758,18.26123 13.670715,17.83545 14.218506,17.269043 C14.218506,17.269043 14.218506,17.269043 14.218506,17.269043 ZM22.906189,6.9995117 C22.906189,6.9995117 24.90625,6.9995117 24.90625,6.9995117 C24.90625,6.9995117 24.90625,14.999512 24.90625,14.999512 C24.90625,14.999512 22.906189,14.999512 22.906189,14.999512 C22.906189,14.999512 22.906189,6.9995117 22.906189,6.9995117 ZM19.90622,10.0 C19.90622,10.0 27.90622,10.0 27.90622,10.0 C27.90622,10.0 27.90622,12.0 27.90622,12.0 C27.90622,12.0 19.90622,12.0 19.90622,12.0 C19.90622,12.0 19.90622,10.0 19.90622,10.0 Z"/>
</svg>