<svg xmlns="http://www.w3.org/2000/svg"
 xmlns:xlink="http://www.w3.org/1999/xlink"
 width="35px" height="34px"  viewBox="0 0 35 34">
<path fill-rule="evenodd"  fill="#ebebeb"
 d="M17.00003,1.0 C25.836578,1.0 33.0,8.163574 33.0,16.999512 C33.0,25.836426 25.836578,32.99951 17.00003,32.99951 C8.163452,32.99951 1.0000305,25.836426 1.0000305,16.999512 C1.0000305,8.163574 8.163452,1.0 17.00003,1.0 ZM8.484283,8.459473 C8.166412,8.765625 8.007629,9.135254 8.007629,9.568359 C8.007629,10.018555 8.167938,10.401367 8.488861,10.717285 C8.809784,11.032715 9.197815,11.19043 9.65271,11.19043 C10.095032,11.19043 10.475067,11.035645 10.792938,10.7265625 C11.110718,10.416992 11.269592,10.042969 11.269592,9.604004 C11.269592,9.159668 11.10907,8.780762 10.7881775,8.468262 C10.467346,8.15625 10.08255,7.9995117 9.633942,7.9995117 C9.18515,7.9995117 8.802063,8.15332 8.484283,8.459473 ZM8.0,23.999512 C8.0,23.999512 11.274536,23.999512 11.274536,23.999512 C11.274536,23.999512 11.274536,11.993164 11.274536,11.993164 C11.274536,11.993164 8.0,11.993164 8.0,11.993164 C8.0,11.993164 8.0,23.999512 8.0,23.999512 ZM13.730347,23.999512 C13.730347,23.999512 16.987823,23.997559 16.987823,23.997559 C16.987823,23.997559 16.987823,19.640137 16.987823,19.640137 C16.987823,18.357422 17.042084,17.523438 17.150879,17.138184 C17.359192,16.398438 17.732819,15.819336 18.271942,15.399902 C18.810852,14.980957 19.456299,14.771973 20.208282,14.771973 C20.788025,14.771973 21.274689,14.897949 21.668823,15.151367 C22.06308,15.404297 22.339264,15.771973 22.497864,16.254883 C22.656372,16.73877 22.73581,17.715332 22.73581,19.187988 C22.73581,19.187988 22.73581,23.997559 22.73581,23.997559 C22.73581,23.997559 26.00003,23.997559 26.00003,23.997559 C26.00003,23.997559 26.00003,16.4375 26.00003,16.4375 C26.00003,15.017578 25.510223,13.944336 24.648956,13.219238 C23.624146,12.364746 22.613647,11.937988 21.144684,11.937988 C20.428284,11.937988 19.963867,12.053223 19.27948,12.284668 C18.594849,12.516602 17.848022,13.002441 17.004883,13.59375 C17.004883,13.59375 17.004883,11.993164 17.004883,11.993164 C17.004883,11.993164 13.730347,11.993164 13.730347,11.993164 C13.730347,11.993164 13.730347,23.999512 13.730347,23.999512 Z"/>
</svg>