<svg xmlns="http://www.w3.org/2000/svg"
 xmlns:xlink="http://www.w3.org/1999/xlink"
 width="57px" height="74px"  viewBox="0 0 57 74">
<path fill-rule="evenodd"  fill="#f6f6f6"
 d="M31.713806,53.98111 C31.20636,59.53942 30.174011,64.425644 28.295074,68.6979 C27.67212,70.114456 26.538788,71.4646 26.015991,72.9997 C25.940063,72.9997 25.864075,72.9997 25.788055,72.9997 C25.788055,72.62248 25.788055,72.244934 25.788055,71.86772 C26.215881,71.20294 26.006714,70.293434 26.243896,69.37729 C27.371918,65.02003 27.456696,59.20703 25.560211,55.566017 C22.320099,49.344925 15.832275,51.437546 9.378555,48.773453 C6.851227,47.730125 4.9943237,45.583046 3.680832,43.339333 C3.2249756,42.056595 2.7691193,40.773193 2.3133545,39.490456 C1.5965729,36.784515 2.2512817,33.291275 2.9970398,31.33944 C6.104126,23.208347 13.868744,19.630096 23.281128,24.094276 C23.281128,23.867813 23.281128,23.64135 23.281128,23.414886 C22.473663,22.318764 22.7359,20.682384 22.369415,19.113083 C21.384186,14.893959 20.624847,1.0465012 25.332275,0.99967957 C26.608887,1.9261208 29.062866,1.8849449 29.206787,3.943367 C28.830658,4.34848 28.808899,4.5118523 28.750916,5.301815 C28.826935,5.301815 28.902832,5.301815 28.978851,5.301815 C28.978851,5.2261086 28.978851,5.15073 28.978851,5.0753517 C29.959625,4.044979 30.228943,1.7046356 31.94165,1.4526062 C33.309967,2.6729164 35.625122,2.9156494 36.044067,5.0753517 C34.90155,6.5211296 33.77527,9.049416 33.309113,10.962067 C33.46103,10.962067 33.613037,10.962067 33.764954,10.962067 C35.1929,9.084946 41.076782,3.7112617 43.79303,4.1694984 C44.596497,5.4612045 45.42697,6.7376328 45.844208,8.471638 C44.40912,8.981346 43.74878,10.36702 42.653503,11.18853 C38.65387,14.188339 35.4216,18.56253 32.853333,22.96196 C33.081177,22.96196 33.309204,22.96196 33.53705,22.96196 C35.105743,21.74165 41.50995,21.150589 44.24881,21.829975 C51.471252,23.621758 53.500977,26.100899 55.188507,33.377274 C55.423096,34.38839 55.73163,36.768913 55.416412,38.132004 C53.233276,47.57373 48.62607,52.34108 39.006927,54.4337 C36.436493,54.99289 33.873108,54.097 31.713806,53.98111 Z"/>
</svg>