<svg xmlns="http://www.w3.org/2000/svg"
 xmlns:xlink="http://www.w3.org/1999/xlink"
 width="35px" height="34px"  viewBox="0 0 35 34">
<path fill-rule="evenodd"  fill="#ebebeb"
 d="M17.00003,1.0 C25.836609,1.0 33.00003,8.163574 33.00003,16.999512 C33.00003,25.836426 25.836609,32.99951 17.00003,32.99951 C8.163483,32.99951 1.000061,25.836426 1.000061,16.999512 C1.000061,8.163574 8.163483,1.0 17.00003,1.0 ZM26.89679,11.20459 C26.234467,11.525879 25.522736,11.743652 24.775635,11.84082 C25.538086,11.34082 26.123749,10.549316 26.399445,9.606445 C25.685822,10.068848 24.895416,10.405273 24.054169,10.586426 C23.380493,9.80127 22.420624,9.310547 21.358429,9.310547 C19.318787,9.310547 17.66513,11.119141 17.66513,13.350098 C17.66513,13.666504 17.697754,13.974609 17.760773,14.270508 C14.691376,14.102539 11.969971,12.493652 10.148468,10.050293 C9.830597,10.646484 9.6484375,11.34082 9.6484375,12.080566 C9.6484375,13.482422 10.3003845,14.71875 11.291443,15.443359 C10.686035,15.422363 10.116516,15.240723 9.618591,14.937988 C9.618317,14.95459 9.618317,14.971191 9.618317,14.98877 C9.618317,16.9458 10.891266,18.578613 12.580902,18.950195 C12.270966,19.041992 11.944702,19.091309 11.60788,19.091309 C11.369934,19.091309 11.138458,19.066406 10.913025,19.019043 C11.382904,20.623535 12.746826,21.791992 14.363037,21.824219 C13.09903,22.907715 11.506683,23.55371 9.776245,23.55371 C9.478119,23.55371 9.184113,23.534668 8.895233,23.49707 C10.529724,24.643066 12.470947,25.312012 14.556641,25.312012 C21.349854,25.312012 25.064697,19.156738 25.064697,13.818359 C25.064697,13.643555 25.060974,13.469238 25.053925,13.295898 C25.775574,12.726074 "/>
</svg>